<svg xmlns="http://www.w3.org/2000/svg" viewBox="0 0 64 64">
  <defs>
    <linearGradient id="g" x1="0" x2="1" y1="0" y2="1">
      <stop offset="0%" stop-color="#1d74f2"/>
      <stop offset="55%" stop-color="#3fb9ff"/>
      <stop offset="100%" stop-color="#42ffd8"/>
    </linearGradient>
    <linearGradient id="glow" x1="0" x2="0" y1="0" y2="1">
      <stop offset="0%" stop-color="rgba(255,255,255,0.9)"/>
      <stop offset="100%" stop-color="rgba(255,255,255,0)"/>
    </linearGradient>
    <filter id="shadow" x="-20%" y="-20%" width="140%" height="140%">
      <feDropShadow dx="0" dy="1" stdDeviation="2" flood-color="#0a2540" flood-opacity="0.55"/>
    </filter>
  </defs>
  <rect width="64" height="64" rx="14" fill="#061629"/>
  <g filter="url(#shadow)">
    <path d="M10 42l19.2-6.4-4.2-10.3c-.4-1 .6-1.9 1.6-1.5l6.8 2.8 8.6-2.8c.6-.2 1.2.1 1.4.7.2.5 0 1.1-.5 1.4l-6.2 4 8.9 3.7c.6.2.9.9.6 1.4-.2.4-.6.7-1 .7l-9.8-.2-5.4 6.6c-.3.4-.9.5-1.3.3-.3-.1-.5-.4-.6-.7l-2.2-6.5L13 45c-.9.3-1.7-.7-1.3-1.6Z" fill="url(#g)"/>
    <circle cx="46" cy="18" r="7" fill="url(#g)"/>
    <circle cx="46" cy="18" r="7" fill="url(#glow)"/>
  </g>
  <path d="M8 54c8 2 16.5 3 24 3s16-1 24-3" stroke="url(#g)" stroke-width="2" stroke-linecap="round" opacity="0.35"/>
</svg>
